<svg width="35" height="35" viewBox="0 0 35 35" fill="none" xmlns="http://www.w3.org/2000/svg">
<path fill-rule="evenodd" clip-rule="evenodd" d="M21.1238 17.5V29.0878C21.1238 29.7973 21.3622 30.3176 21.8867 30.6959C22.4112 31.0743 23.0311 31.2162 23.7464 31.2162C24.4616 31.2162 25.0338 31.027 25.5583 30.6959C26.0828 30.3176 26.3213 29.7973 26.3213 29.0878V17.5C25.5106 17.6892 24.6047 17.8311 23.651 17.8311C22.8404 17.8311 21.9821 17.7365 21.1238 17.5Z" fill="#37C3FF"/>
<path fill-rule="evenodd" clip-rule="evenodd" d="M6.19883 31.1214V21.189H0C0.810616 25.2565 3.33783 28.8038 6.19883 31.1214Z" fill="#9A5BFF"/>
<path fill-rule="evenodd" clip-rule="evenodd" d="M4.43457 17.5H12.5407V9.45947L8.48765 13.7635L4.43457 9.45947V17.5Z" fill="#E22EFF"/>
<path fill-rule="evenodd" clip-rule="evenodd" d="M28.2761 8.74991C28.2761 7.1891 27.847 5.95937 26.941 5.10802C26.0827 4.20937 25.0337 3.78369 23.7939 3.78369C22.5065 3.78369 21.4574 4.20937 20.5514 5.06072C19.6455 5.91207 19.2163 7.1418 19.2163 8.74991C19.2163 10.3107 19.6455 11.4932 20.5514 12.3918C21.4574 13.2905 22.5065 13.7161 23.7462 13.7161C24.986 13.7161 26.035 13.2905 26.941 12.3918C27.847 11.4932 28.2761 10.3107 28.2761 8.74991Z" fill="#E83867"/>
<path fill-rule="evenodd" clip-rule="evenodd" d="M10.6335 21.2837V33.7229C12.6839 34.5269 14.9727 34.9999 17.3092 34.9999C18.4536 34.9999 19.5503 34.9053 20.647 34.7161C19.9795 34.4323 19.3119 34.1959 18.7397 33.7229C17.3092 32.635 16.5463 31.1215 16.5463 29.1823V21.2837H10.6335Z" fill="#3954EE"/>
<path fill-rule="evenodd" clip-rule="evenodd" d="M15.4017 0C11.7301 0.425676 8.48763 1.7027 5.67432 4.20946L8.67836 7.56757L15.4017 0Z" fill="#FBBC04"/>
<path fill-rule="evenodd" clip-rule="evenodd" d="M31.1372 14.7569V28.3785C32.4723 26.6758 33.5214 24.7839 34.1413 22.7028C34.332 22.088 34.475 21.4731 34.6181 20.811C34.8088 19.7231 34.9519 18.6353 34.9519 17.4528C34.9519 14.5677 34.332 11.9664 33.0922 9.5542C33.283 13.1015 31.1372 14.7569 31.1372 14.7569Z" fill="#76E800"/>
</svg>
